<?xml version="1.0" encoding="UTF-8"?>
<svg version="1.1" xmlns="http://www.w3.org/2000/svg" width="410" height="410">
<path d="M0 0 C9.76145295 7.63449856 14.51219397 16.48687876 17.25 28.4375 C17.74367201 33.60652493 17.72129792 38.73983028 17.640625 43.92578125 C17.63314101 45.36450911 17.62745832 46.80324733 17.62347412 48.24198914 C17.60838694 51.98218202 17.56925785 55.72172814 17.5246582 59.46166992 C17.48333416 63.2966233 17.46538485 67.13168381 17.4453125 70.96679688 C17.40274156 78.45732233 17.33470371 85.94731968 17.25 93.4375 C18.10118408 93.41655273 18.95236816 93.39560547 19.8293457 93.37402344 C23.04056666 93.30513838 26.25140643 93.25535949 29.46313477 93.21777344 C30.843145 93.1978733 32.22307337 93.1707426 33.6027832 93.13574219 C44.30273518 92.87144988 54.83790833 93.48480917 63.125 101.0625 C68.74460821 106.43033365 72.90868786 113.82139319 73.48828125 121.66015625 C73.65977764 130.53283811 73.47566482 138.26715531 67.625 145.42578125 C55.97378527 156.76144225 37.17157054 159.47014171 21.57104492 159.44458008 C20.76156906 159.44355789 19.9520932 159.44253571 19.11808777 159.44148254 C18.5016188 159.4401683 17.88514984 159.43885406 17.25 159.4375 C17.33421755 176.63267699 17.42946504 193.8277538 17.53752708 211.02279663 C17.5874603 219.00834272 17.63390386 226.99387952 17.671875 234.97949219 C17.70501395 241.9469379 17.7449625 248.91430718 17.79279006 255.88166809 C17.81783961 259.56429652 17.83968187 263.24687569 17.85334396 266.92956543 C16.2063142 291.73244967 16.2063142 291.73244967 23.25 314.4375 C31.89187006 318.06708542 41.03980976 316.29586146 50 314.875 C62.39164857 313.08174375 73.43016346 312.08458291 84.25 319.4375 C90.65440695 324.38859922 93.65365114 330.24936622 96 337.875 C97.18629857 350.03456035 95.07219826 359.8173083 87.25 369.4375 C73.79856071 384.30306496 49.24078883 388.09821765 30.25 389.4375 C2.54019342 390.65688782 -24.12261152 389.91778677 -46 371.0625 C-55.69423811 361.98279363 -61.78758528 352.31294459 -64.9375 339.375 C-65.0924292 338.7459375 -65.2473584 338.116875 -65.40698242 337.46875 C-68.35005587 324.31864284 -69.04935519 310.8917328 -68.97705078 297.46264648 C-68.97648448 295.95276904 -68.97680748 294.44289105 -68.97793579 292.93301392 C-68.97850177 288.89484301 -68.96687204 284.85679471 -68.95278788 280.81865191 C-68.94015246 276.57597167 -68.93910005 272.33328759 -68.93673706 268.09059143 C-68.93055948 260.08358072 -68.91419991 252.07662565 -68.89403808 244.06963927 C-68.87156212 234.94246161 -68.86065645 225.81528108 -68.85064721 216.68808258 C-68.82982969 197.93785703 -68.79472737 179.18768301 -68.75 160.4375 C-69.43883774 160.44266632 -70.12767548 160.44783264 -70.83738708 160.45315552 C-71.73981644 160.45717377 -72.64224579 160.46119202 -73.57202148 160.46533203 C-74.46710922 160.47049835 -75.36219696 160.47566467 -76.28440857 160.48098755 C-85.4159693 160.31992713 -93.16272933 155.65307482 -99.7265625 149.62109375 C-106.14386596 142.86244436 -108.914593 135.85249004 -109.375 126.5625 C-109.10717876 117.11665102 -104.94125905 109.4287532 -98.75 102.4375 C-91.2254971 96.70831709 -83.03167133 93.35510574 -73.57421875 93.40966797 C-72.22009888 93.41569534 -72.22009888 93.41569534 -70.83862305 93.42184448 C-69.80475464 93.42959396 -69.80475464 93.42959396 -68.75 93.4375 C-68.75666183 92.7021553 -68.76332367 91.96681061 -68.77018738 91.20918274 C-68.83071163 84.22309435 -68.87618183 77.23709929 -68.90543652 70.25082111 C-68.9209831 66.66050697 -68.94201523 63.07041242 -68.97631836 59.48022461 C-69.00931091 56.00479717 -69.02693536 52.52957873 -69.03463173 49.05400658 C-69.04273815 47.10619071 -69.0660909 45.15845699 -69.08988953 43.21076965 C-69.09293678 26.80021978 -65.32534018 14.64732989 -54.0703125 2.66796875 C-39.33432226 -11.49743601 -16.39999217 -10.95582467 0 0 Z " fill="#7250FC" transform="translate(216.75,10.5625)"/>
</svg>
